<svg width="414" height="178" viewBox="0 0 414 178" fill="none" xmlns="http://www.w3.org/2000/svg">
<path d="M7.33333 158.464C9.76042 158.464 11.6719 159.047 13.0625 160.214C14.4635 161.38 15.1667 162.984 15.1667 165.026C15.1667 167.068 14.4635 168.672 13.0625 169.839C11.6719 170.995 9.76042 171.568 7.33333 171.568H2.6875V177.255H0V158.464H7.33333ZM7.25 169.234C8.94271 169.234 10.2344 168.875 11.125 168.151C12.026 167.432 12.4792 166.391 12.4792 165.026C12.4792 163.667 12.026 162.625 11.125 161.901C10.2344 161.167 8.94271 160.797 7.25 160.797H2.6875V169.234H7.25Z" fill="#CEDAC2"/>
<path d="M53.4097 177.255L49.368 171.484C48.8524 171.526 48.4565 171.547 48.1805 171.547H43.5347V177.255H40.8472V158.464H48.1805C50.6076 158.464 52.519 159.047 53.9097 160.214C55.3107 161.38 56.0138 162.984 56.0138 165.026C56.0138 166.474 55.6493 167.708 54.9305 168.734C54.2222 169.75 53.2065 170.484 51.8888 170.943L56.3263 177.255H53.4097ZM48.0972 169.255C49.7899 169.255 51.0815 168.896 51.9722 168.172C52.8732 167.438 53.3263 166.391 53.3263 165.026C53.3263 163.667 52.8732 162.625 51.9722 161.901C51.0815 161.167 49.7899 160.797 48.0972 160.797H43.5347V169.255H48.0972Z" fill="#CEDAC2"/>
<path d="M81.8284 158.464H84.5159V177.255H81.8284V158.464Z" fill="#CEDAC2"/>
<path d="M129.039 177.255L129.018 163.568L122.226 174.984H120.997L114.206 163.651V177.255H111.622V158.464H113.831L121.664 171.672L129.393 158.464H131.601L131.622 177.255H129.039Z" fill="#CEDAC2"/>
<path d="M172.366 174.922V177.255H158.72V158.464H171.991V160.797H161.408V166.568H170.825V168.859H161.408V174.922H172.366Z" fill="#CEDAC2"/>
<path d="M205.506 158.464C207.933 158.464 209.844 159.047 211.235 160.214C212.636 161.38 213.339 162.984 213.339 165.026C213.339 167.068 212.636 168.672 211.235 169.839C209.844 170.995 207.933 171.568 205.506 171.568H200.86V177.255H198.172V158.464H205.506ZM205.422 169.234C207.115 169.234 208.407 168.875 209.297 168.151C210.199 167.432 210.652 166.391 210.652 165.026C210.652 163.667 210.199 162.625 209.297 161.901C208.407 161.167 207.115 160.797 205.422 160.797H200.86V169.234H205.422Z" fill="#CEDAC2"/>
<path d="M244.499 177.464C243.082 177.464 241.712 177.25 240.395 176.818C239.087 176.375 238.061 175.807 237.311 175.109L238.29 173.005C239.009 173.661 239.926 174.188 241.04 174.589C242.165 174.995 243.316 175.193 244.499 175.193C246.051 175.193 247.212 174.932 247.978 174.401C248.754 173.875 249.145 173.172 249.145 172.297C249.145 171.646 248.926 171.12 248.499 170.714C248.082 170.313 247.561 170.005 246.936 169.797C246.322 169.578 245.457 169.333 244.332 169.068C242.926 168.734 241.79 168.401 240.915 168.068C240.051 167.724 239.311 167.193 238.686 166.484C238.072 165.776 237.77 164.828 237.77 163.63C237.77 162.63 238.03 161.729 238.561 160.922C239.087 160.12 239.884 159.474 240.957 158.984C242.025 158.5 243.358 158.255 244.957 158.255C246.066 158.255 247.155 158.401 248.228 158.693C249.296 158.974 250.218 159.38 250.999 159.922L250.103 162.068C249.322 161.568 248.483 161.193 247.582 160.943C246.691 160.682 245.816 160.547 244.957 160.547C243.426 160.547 242.28 160.828 241.52 161.38C240.77 161.922 240.395 162.641 240.395 163.526C240.395 164.167 240.608 164.688 241.04 165.089C241.468 165.495 241.999 165.807 242.624 166.026C243.259 166.25 244.129 166.484 245.228 166.734C246.645 167.083 247.775 167.432 248.624 167.776C249.483 168.109 250.218 168.625 250.832 169.318C251.457 170.016 251.77 170.953 251.77 172.13C251.77 173.12 251.499 174.021 250.957 174.839C250.426 175.646 249.613 176.287 248.52 176.755C247.436 177.229 246.093 177.464 244.499 177.464Z" fill="#CEDAC2"/>
<path d="M284.345 170.755V177.255H281.699V170.714L274.24 158.464H277.115L283.115 168.38L289.157 158.464H291.803L284.345 170.755Z" fill="#CEDAC2"/>
<path d="M324.388 177.464C322.513 177.464 320.815 177.057 319.305 176.234C317.789 175.401 316.602 174.255 315.742 172.797C314.893 171.339 314.471 169.693 314.471 167.859C314.471 166.042 314.893 164.401 315.742 162.943C316.602 161.484 317.789 160.339 319.305 159.505C320.831 158.672 322.539 158.255 324.43 158.255C325.888 158.255 327.221 158.505 328.43 159.005C329.648 159.495 330.69 160.214 331.555 161.172L329.825 162.88C328.409 161.396 326.643 160.651 324.534 160.651C323.128 160.651 321.867 160.964 320.742 161.589C319.617 162.214 318.732 163.078 318.096 164.172C317.471 165.271 317.159 166.5 317.159 167.859C317.159 169.224 317.471 170.458 318.096 171.568C318.732 172.667 319.617 173.526 320.742 174.151C321.867 174.776 323.128 175.089 324.534 175.089C326.628 175.089 328.393 174.333 329.825 172.818L331.555 174.526C330.69 175.484 329.648 176.214 328.43 176.714C327.206 177.214 325.857 177.464 324.388 177.464Z" fill="#CEDAC2"/>
<path d="M373.033 158.464V177.255H370.345V168.88H359.554V177.255H356.866V158.464H359.554V166.547H370.345V158.464H373.033Z" fill="#CEDAC2"/>
<path d="M413.774 174.922V177.255H400.128V158.464H413.399V160.797H402.815V166.568H412.232V168.859H402.815V174.922H413.774Z" fill="#CEDAC2"/>
<path fill-rule="evenodd" clip-rule="evenodd" d="M161.064 63.5923C160.413 63.5767 159.746 63.7329 159.137 64.0871C157.689 64.9256 157.022 66.5975 157.397 68.1496L155.757 68.9725C154.741 63.7277 154.877 58.2225 156.293 52.8371C157.121 49.6912 158.345 46.7277 159.918 43.9985L159.074 43.1808L162.585 46.5767C161.913 47.6912 161.856 49.1235 162.548 50.3267C162.918 50.9673 163.449 51.4569 164.059 51.7694L161.064 63.5923ZM164.371 65.8267C164.314 65.6964 164.246 65.561 164.173 65.436C163.804 64.7954 163.272 64.311 162.663 63.9985L165.658 52.1704C166.262 52.186 166.877 52.0506 167.449 51.7537L175.189 60.811C174.423 61.7329 174.017 62.8944 174.028 64.0767L164.371 65.8267ZM185.804 45.4777C185.101 46.1079 184.642 46.936 184.455 47.8214L169.34 47.6912C169.283 47.436 169.199 47.186 169.09 46.9412L179.064 39.2485C180.017 40.0402 181.33 40.3058 182.533 39.9204L185.809 45.4777H185.804ZM184.439 49.4777L169.324 49.3423C169.21 49.8214 169.002 50.2798 168.705 50.6808L176.444 59.7381C176.465 59.7225 176.491 59.7121 176.517 59.6964C177.913 58.8892 179.543 58.8371 180.923 59.4152L185.71 51.8058C185.418 51.5298 185.158 51.2017 184.944 50.8319C184.694 50.3996 184.528 49.9412 184.439 49.4777ZM187.111 52.686C187.819 52.9621 188.601 53.0454 189.361 52.9204L194.507 66.6079C194.028 66.9204 193.642 67.3371 193.366 67.8006L183.934 64.7433C184.09 63.6652 183.903 62.535 183.319 61.5194C183.048 61.0454 182.71 60.6392 182.324 60.2954L187.111 52.686ZM195.444 36.2017C195.538 36.5506 195.679 36.8892 195.866 37.2173C195.996 37.4412 196.142 37.6496 196.298 37.8371L190.647 44.8839C189.606 44.3423 188.371 44.2329 187.226 44.6392L183.949 39.0819C184.559 38.5089 184.939 37.7537 185.064 36.9569L195.444 36.2017ZM192.918 48.2902L206.543 49.6756C206.736 49.0194 207.09 48.4048 207.58 47.8996L201.324 38.9933C200.095 39.5402 198.72 39.4673 197.59 38.8735L191.934 45.9204C192.09 46.1079 192.236 46.3162 192.366 46.5402C192.684 47.0975 192.866 47.6912 192.918 48.2902ZM202.673 38.0454C203.96 36.7017 204.267 34.6183 203.288 32.9256C203.241 32.8475 203.189 32.7642 203.137 32.686L208.121 27.7173C221.048 34.035 225.934 41.3214 222.788 49.5819L214.965 49.9204C214.866 49.5194 214.715 49.1235 214.496 48.7433C213.366 46.785 210.944 46.035 208.929 46.9464L202.673 38.0402V38.0454ZM199.767 67.8475C199.658 67.6548 199.533 67.4777 199.392 67.311L208.798 54.8527C210.054 55.4673 211.59 55.4673 212.897 54.7121C214.095 54.0194 214.845 52.8423 215.033 51.5714L222.038 51.2694C220.548 54.2173 218.069 57.285 214.601 60.4725C213.798 69.3162 209.793 74.311 202.585 75.4464L199.543 71.9152C200.392 70.7589 200.533 69.1652 199.767 67.8475ZM174.319 65.7017L164.663 67.4517C164.632 68.1183 164.418 68.7642 164.048 69.3214L171.804 77.5142C171.851 77.4829 171.903 77.4569 171.949 77.4256C172.736 76.9725 173.606 76.7954 174.444 76.8735L176.856 68.5089C175.981 68.0871 175.215 67.41 174.694 66.5037C174.543 66.2433 174.418 65.9777 174.319 65.7017ZM170.606 78.6496C169.673 79.9725 169.533 81.7642 170.392 83.2537C170.851 84.0454 171.522 84.6339 172.293 84.9933L170.658 91.7121C170.439 91.6183 170.236 91.5246 170.033 91.4152C162.923 86.2485 158.106 78.8214 156.121 70.6392L158.137 69.6287C159.262 70.9985 161.241 71.3944 162.824 70.4777C162.835 70.4725 162.845 70.4621 162.851 70.4621L170.606 78.6496ZM193.699 72.0819L178.184 79.9621C178.699 81.7954 177.934 83.8162 176.215 84.811C175.481 85.2381 174.679 85.4152 173.897 85.3839L172.231 92.2173C174.757 92.811 177.923 92.5819 181.736 91.5402C185.22 99.8892 187.981 103.858 190.017 103.446L190.939 102.915C192.788 101.066 193.882 94.6548 194.226 83.6808C197.694 82.3319 200.064 79.936 201.319 76.5089L198.288 72.9881C196.72 73.8214 194.804 73.4152 193.699 72.0819ZM192.861 69.3735C192.819 69.785 192.851 70.2017 192.955 70.6079L177.434 78.4881C177.048 77.9933 176.569 77.6027 176.033 77.3267L178.439 68.9673C179.465 69.0871 180.533 68.8839 181.496 68.3319C182.345 67.8371 183.002 67.1287 183.423 66.3162L192.861 69.3735ZM198.08 66.3162L207.476 53.8579C207.278 53.6339 207.095 53.3839 206.939 53.1131C206.611 52.5454 206.423 51.9308 206.371 51.3214L192.752 49.936C192.46 50.8996 191.824 51.7642 190.908 52.3371L196.054 66.0194C196.746 65.9256 197.449 66.035 198.08 66.3162ZM182.293 32.8006C183.236 33.035 184.085 33.6339 184.611 34.5454C184.752 34.7902 184.861 35.0454 184.944 35.311L195.324 34.5558C195.481 33.2642 196.226 32.061 197.434 31.3579C198.903 30.5142 200.658 30.6287 201.976 31.5142L206.361 27.1392C199.371 24.5298 191.382 24.5714 182.377 27.2537L182.293 32.8006ZM160.408 41.936C160.366 41.9777 160.324 42.0194 160.288 42.061C160.324 42.0194 160.366 41.9777 160.408 41.936ZM160.689 41.6339C160.601 41.7277 160.522 41.8162 160.439 41.9048C160.522 41.8162 160.601 41.7277 160.689 41.6339ZM160.83 41.4777C160.793 41.5194 160.752 41.561 160.715 41.6027C160.752 41.561 160.793 41.5194 160.83 41.4777ZM160.965 41.3214L160.845 41.4569C160.882 41.4152 160.923 41.3683 160.965 41.3214ZM163.897 45.2902C165.267 44.4985 166.929 44.686 168.085 45.6339L178.054 37.9412C177.262 36.2225 177.892 34.1548 179.564 33.1912C179.908 32.9881 180.272 32.8527 180.642 32.7746L180.72 27.7746C176.121 29.285 172.663 31.0194 169.981 32.7694C166.356 35.4152 163.231 38.7277 160.793 42.5506L160.288 42.061L163.731 45.3892C163.783 45.3579 163.84 45.3214 163.897 45.2902Z" fill="#176554"/>
<path fill-rule="evenodd" clip-rule="evenodd" d="M263.069 45.285H251.71V35.0506H241.486V23.6756H251.71V13.4412H263.069V23.6756H273.293V35.0506H263.069V45.285ZM245.814 74.4933C250.033 78.7537 250.241 81.4621 246.434 82.6131C248.778 83.7537 249.949 84.7173 249.996 85.8319C250.121 88.4777 247.095 87.6183 247.668 91.3267C249.272 101.65 251.09 105.712 236.913 106.999C225.944 109.493 219.028 119.165 216.163 135.999C359.418 30.7225 249.304 -35.0171 201.731 19.8631C214.611 22.1287 224.491 30.8319 231.366 45.9673C236.929 58.2017 236.601 59.3423 247.658 65.4829C252.762 68.3215 250.059 70.3787 245.814 74.4933Z" fill="#176554"/>
<path fill-rule="evenodd" clip-rule="evenodd" d="M195.986 19.6756C198.309 17.0975 200.757 14.6287 203.319 12.2798C140.715 -27.9494 81.1057 36.7537 170.725 118.071C178.361 106.061 164.225 95.8579 157.949 86.1079C137.137 53.7693 158.897 21.2381 195.986 19.6756Z" fill="#5D806D"/>
</svg>
