<svg width="414" height="20" viewBox="0 0 414 20" fill="none" xmlns="http://www.w3.org/2000/svg">
<path d="M7.33333 0.463562C9.76042 0.463562 11.6719 1.0469 13.0625 2.21356C14.4635 3.38023 15.1667 4.9844 15.1667 7.02606C15.1667 9.06773 14.4635 10.6719 13.0625 11.8386C11.6719 12.9948 9.76042 13.5677 7.33333 13.5677H2.6875V19.2552H0V0.463562H7.33333ZM7.25 11.2344C8.94271 11.2344 10.2344 10.875 11.125 10.1511C12.026 9.43231 12.4792 8.39065 12.4792 7.02606C12.4792 5.66669 12.026 4.62502 11.125 3.90106C10.2344 3.16669 8.94271 2.7969 7.25 2.7969H2.6875V11.2344H7.25Z" fill="#CEDAC2"/>
<path d="M53.4097 19.2552L49.368 13.4844C48.8524 13.5261 48.4565 13.5469 48.1805 13.5469H43.5347V19.2552H40.8472V0.463562H48.1805C50.6076 0.463562 52.519 1.0469 53.9097 2.21356C55.3107 3.38023 56.0138 4.9844 56.0138 7.02606C56.0138 8.47398 55.6493 9.70835 54.9305 10.7344C54.2222 11.75 53.2065 12.4844 51.8888 12.9427L56.3263 19.2552H53.4097ZM48.0972 11.2552C49.7899 11.2552 51.0815 10.8959 51.9722 10.1719C52.8732 9.43752 53.3263 8.39065 53.3263 7.02606C53.3263 5.66669 52.8732 4.62502 51.9722 3.90106C51.0815 3.16669 49.7899 2.7969 48.0972 2.7969H43.5347V11.2552H48.0972Z" fill="#CEDAC2"/>
<path d="M81.8284 0.463562H84.5159V19.2552H81.8284V0.463562Z" fill="#CEDAC2"/>
<path d="M129.039 19.2552L129.018 5.56773L122.226 16.9844H120.997L114.206 5.65106V19.2552H111.622V0.463562H113.831L121.664 13.6719L129.393 0.463562H131.601L131.622 19.2552H129.039Z" fill="#CEDAC2"/>
<path d="M172.366 16.9219V19.2552H158.72V0.463562H171.991V2.7969H161.408V8.56773H170.825V10.8594H161.408V16.9219H172.366Z" fill="#CEDAC2"/>
<path d="M205.506 0.463562C207.933 0.463562 209.844 1.0469 211.235 2.21356C212.636 3.38023 213.339 4.9844 213.339 7.02606C213.339 9.06773 212.636 10.6719 211.235 11.8386C209.844 12.9948 207.933 13.5677 205.506 13.5677H200.86V19.2552H198.172V0.463562H205.506ZM205.422 11.2344C207.115 11.2344 208.407 10.875 209.297 10.1511C210.199 9.43231 210.652 8.39065 210.652 7.02606C210.652 5.66669 210.199 4.62502 209.297 3.90106C208.407 3.16669 207.115 2.7969 205.422 2.7969H200.86V11.2344H205.422Z" fill="#CEDAC2"/>
<path d="M244.499 19.4636C243.082 19.4636 241.712 19.25 240.395 18.8177C239.087 18.375 238.061 17.8073 237.311 17.1094L238.29 15.0052C239.009 15.6615 239.926 16.1875 241.04 16.5886C242.165 16.9948 243.316 17.1927 244.499 17.1927C246.051 17.1927 247.212 16.9323 247.978 16.4011C248.754 15.875 249.145 15.1719 249.145 14.2969C249.145 13.6459 248.926 13.1198 248.499 12.7136C248.082 12.3125 247.561 12.0052 246.936 11.7969C246.322 11.5782 245.457 11.3334 244.332 11.0677C242.926 10.7344 241.79 10.4011 240.915 10.0677C240.051 9.724 239.311 9.19275 238.686 8.48442C238.072 7.77608 237.77 6.82817 237.77 5.63025C237.77 4.63025 238.03 3.72921 238.561 2.92192C239.087 2.11983 239.884 1.474 240.957 0.984416C242.025 0.500041 243.358 0.255249 244.957 0.255249C246.066 0.255249 247.155 0.401082 248.228 0.692749C249.296 0.973998 250.218 1.38025 250.999 1.92192L250.103 4.06775C249.322 3.56775 248.483 3.19275 247.582 2.94275C246.691 2.68233 245.816 2.54692 244.957 2.54692C243.426 2.54692 242.28 2.82817 241.52 3.38025C240.77 3.92192 240.395 4.64067 240.395 5.52608C240.395 6.16671 240.608 6.68754 241.04 7.08858C241.468 7.49483 241.999 7.80733 242.624 8.02608C243.259 8.25004 244.129 8.48442 245.228 8.73442C246.645 9.08337 247.775 9.43233 248.624 9.77608C249.483 10.1094 250.218 10.625 250.832 11.3177C251.457 12.0157 251.77 12.9532 251.77 14.1302C251.77 15.1198 251.499 16.0209 250.957 16.8386C250.426 17.6459 249.613 18.2865 248.52 18.7552C247.436 19.2292 246.093 19.4636 244.499 19.4636Z" fill="#CEDAC2"/>
<path d="M284.345 12.7552V19.2552H281.699V12.7136L274.24 0.463562H277.115L283.115 10.3802L289.157 0.463562H291.803L284.345 12.7552Z" fill="#CEDAC2"/>
<path d="M324.388 19.4636C322.513 19.4636 320.815 19.0573 319.305 18.2344C317.789 17.4011 316.602 16.2552 315.742 14.7969C314.893 13.3386 314.471 11.6927 314.471 9.85942C314.471 8.04171 314.893 6.40108 315.742 4.94275C316.602 3.48442 317.789 2.33858 319.305 1.50525C320.831 0.671916 322.539 0.255249 324.43 0.255249C325.888 0.255249 327.221 0.505249 328.43 1.00525C329.648 1.49483 330.69 2.21358 331.555 3.17192L329.825 4.88025C328.409 3.39587 326.643 2.65108 324.534 2.65108C323.128 2.65108 321.867 2.96358 320.742 3.58858C319.617 4.21358 318.732 5.07817 318.096 6.17192C317.471 7.27087 317.159 8.50004 317.159 9.85942C317.159 11.224 317.471 12.4584 318.096 13.5677C318.732 14.6667 319.617 15.5261 320.742 16.1511C321.867 16.7761 323.128 17.0886 324.534 17.0886C326.628 17.0886 328.393 16.3334 329.825 14.8177L331.555 16.5261C330.69 17.4844 329.648 18.2136 328.43 18.7136C327.206 19.2136 325.857 19.4636 324.388 19.4636Z" fill="#CEDAC2"/>
<path d="M373.033 0.463562V19.2552H370.345V10.8802H359.554V19.2552H356.866V0.463562H359.554V8.5469H370.345V0.463562H373.033Z" fill="#CEDAC2"/>
<path d="M413.774 16.9219V19.2552H400.128V0.463562H413.399V2.7969H402.815V8.56773H412.232V10.8594H402.815V16.9219H413.774Z" fill="#CEDAC2"/>
</svg>
