<svg width="162" height="136" viewBox="0 0 162 136" fill="none" xmlns="http://www.w3.org/2000/svg">
<path fill-rule="evenodd" clip-rule="evenodd" d="M35.9402 63.5923C35.2892 63.5767 34.6225 63.7329 34.0132 64.0871C32.5652 64.9256 31.8986 66.5975 32.2736 68.1496L30.6329 68.9725C29.6173 63.7277 29.7527 58.2225 31.1694 52.8371C31.9975 49.6912 33.2215 46.7277 34.7944 43.9985L33.9507 43.1808L37.4611 46.5767C36.7892 47.6912 36.7319 49.1235 37.4246 50.3267C37.7944 50.9673 38.3257 51.4569 38.935 51.7694L35.9402 63.5923ZM39.2475 65.8267C39.1902 65.6964 39.1225 65.561 39.0496 65.436C38.6798 64.7954 38.1486 64.311 37.5392 63.9985L40.534 52.1704C41.1382 52.186 41.7527 52.0506 42.3256 51.7537L50.0652 60.811C49.2996 61.7329 48.8934 62.8944 48.9038 64.0767L39.2475 65.8267ZM60.6798 45.4777C59.9767 46.1079 59.5184 46.936 59.3309 47.8214L44.2163 47.6912C44.159 47.436 44.0756 47.186 43.9663 46.9412L53.9402 39.2485C54.8934 40.0402 56.2059 40.3058 57.409 39.9204L60.685 45.4777H60.6798ZM59.3152 49.4777L44.2006 49.3423C44.0861 49.8214 43.8777 50.2798 43.5809 50.6808L51.3204 59.7381C51.3413 59.7225 51.3673 59.7121 51.3934 59.6964C52.7892 58.8892 54.4194 58.8371 55.7996 59.4152L60.5861 51.8058C60.2944 51.5298 60.034 51.2017 59.8204 50.8319C59.5704 50.3996 59.4038 49.9412 59.3152 49.4777ZM61.9871 52.686C62.6954 52.9621 63.4767 53.0454 64.2371 52.9204L69.3829 66.6079C68.9038 66.9204 68.5184 67.3371 68.2423 67.8006L58.81 64.7433C58.9663 63.6652 58.7788 62.535 58.1954 61.5194C57.9246 61.0454 57.5861 60.6392 57.2007 60.2954L61.9871 52.686ZM70.3204 36.2017C70.4142 36.5506 70.5548 36.8892 70.7423 37.2173C70.8725 37.4412 71.0184 37.6496 71.1746 37.8371L65.5236 44.8839C64.4819 44.3423 63.2475 44.2329 62.1017 44.6392L58.8257 39.0819C59.435 38.5089 59.8152 37.7537 59.9402 36.9569L70.3204 36.2017ZM67.7944 48.2902L81.4194 49.6756C81.6121 49.0194 81.9663 48.4048 82.4559 47.8996L76.2006 38.9933C74.9715 39.5402 73.5965 39.4673 72.4663 38.8735L66.81 45.9204C66.9663 46.1079 67.1121 46.3162 67.2423 46.5402C67.56 47.0975 67.7423 47.6912 67.7944 48.2902ZM77.5496 38.0454C78.8361 36.7017 79.1434 34.6183 78.1642 32.9256C78.1173 32.8475 78.0652 32.7642 78.0131 32.686L82.9975 27.7173C95.9246 34.035 100.81 41.3214 97.6642 49.5819L89.8413 49.9204C89.7423 49.5194 89.5913 49.1235 89.3725 48.7433C88.2423 46.785 85.8204 46.035 83.8048 46.9464L77.5496 38.0402V38.0454ZM74.6434 67.8475C74.534 67.6548 74.409 67.4777 74.2684 67.311L83.6746 54.8527C84.9298 55.4673 86.4663 55.4673 87.7736 54.7121C88.9715 54.0194 89.7215 52.8423 89.909 51.5714L96.9142 51.2694C95.4246 54.2173 92.9454 57.285 89.4767 60.4725C88.6746 69.3162 84.6694 74.311 77.4611 75.4464L74.4194 71.9152C75.2684 70.7589 75.409 69.1652 74.6434 67.8475ZM49.1954 65.7017L39.5392 67.4517C39.5079 68.1183 39.2944 68.7642 38.9246 69.3214L46.6798 77.5142C46.7267 77.4829 46.7788 77.4569 46.8256 77.4256C47.6121 76.9725 48.4819 76.7954 49.3204 76.8735L51.7319 68.5089C50.8569 68.0871 50.0913 67.41 49.5704 66.5037C49.4194 66.2433 49.2944 65.9777 49.1954 65.7017ZM45.4819 78.6496C44.5496 79.9725 44.409 81.7642 45.2684 83.2537C45.7267 84.0454 46.3986 84.6339 47.1694 84.9933L45.534 91.7121C45.3152 91.6183 45.1121 91.5246 44.909 91.4152C37.7996 86.2485 32.9819 78.8214 30.9975 70.6392L33.0131 69.6287C34.1382 70.9985 36.1173 71.3944 37.7007 70.4777C37.7111 70.4725 37.7215 70.4621 37.7267 70.4621L45.4819 78.6496ZM68.5757 72.0819L53.06 79.9621C53.5757 81.7954 52.81 83.8162 51.0913 84.811C50.3569 85.2381 49.5548 85.4152 48.7736 85.3839L47.1069 92.2173C49.6329 92.811 52.7996 92.5819 56.6121 91.5402C60.0965 99.8892 62.8569 103.858 64.8934 103.446L65.8152 102.915C67.6642 101.066 68.7579 94.6548 69.1017 83.6808C72.5704 82.3319 74.9402 79.936 76.1954 76.5089L73.1642 72.9881C71.5965 73.8214 69.6798 73.4152 68.5757 72.0819ZM67.7371 69.3735C67.6954 69.785 67.7267 70.2017 67.8309 70.6079L52.31 78.4881C51.9246 77.9933 51.4454 77.6027 50.909 77.3267L53.3152 68.9673C54.3413 69.0871 55.409 68.8839 56.3725 68.3319C57.2215 67.8371 57.8777 67.1287 58.2996 66.3162L67.7371 69.3735ZM72.9559 66.3162L82.3517 53.8579C82.1538 53.6339 81.9715 53.3839 81.8152 53.1131C81.4871 52.5454 81.2996 51.9308 81.2475 51.3214L67.6277 49.936C67.3361 50.8996 66.7007 51.7642 65.784 52.3371L70.9298 66.0194C71.6225 65.9256 72.3256 66.035 72.9559 66.3162ZM57.1694 32.8006C58.1121 33.035 58.9611 33.6339 59.4871 34.5454C59.6277 34.7902 59.7371 35.0454 59.8204 35.311L70.2007 34.5558C70.3569 33.2642 71.1017 32.061 72.31 31.3579C73.7788 30.5142 75.534 30.6287 76.8517 31.5142L81.2371 27.1392C74.2475 24.5298 66.2579 24.5714 57.2527 27.2537L57.1694 32.8006ZM35.284 41.936C35.2423 41.9777 35.2007 42.0194 35.1642 42.061C35.2007 42.0194 35.2423 41.9777 35.284 41.936ZM35.5652 41.6339C35.4767 41.7277 35.3986 41.8162 35.3152 41.9048C35.3986 41.8162 35.4767 41.7277 35.5652 41.6339ZM35.7059 41.4777C35.6694 41.5194 35.6277 41.561 35.5913 41.6027C35.6277 41.561 35.6694 41.5194 35.7059 41.4777ZM35.8413 41.3214L35.7215 41.4569C35.7579 41.4152 35.7996 41.3683 35.8413 41.3214ZM38.7736 45.2902C40.1434 44.4985 41.8048 44.686 42.9611 45.6339L52.9298 37.9412C52.1382 36.2225 52.7684 34.1548 54.4402 33.1912C54.784 32.9881 55.1486 32.8527 55.5184 32.7746L55.5965 27.7746C50.9975 29.285 47.5392 31.0194 44.8569 32.7694C41.2319 35.4152 38.1069 38.7277 35.6694 42.5506L35.1642 42.061L38.6069 45.3892C38.659 45.3579 38.7163 45.3214 38.7736 45.2902Z" fill="#176554"/>
<path fill-rule="evenodd" clip-rule="evenodd" d="M137.945 45.285H126.586V35.0506H116.362V23.6756H126.586V13.4412H137.945V23.6756H148.169V35.0506H137.945V45.285ZM120.69 74.4933C124.909 78.7537 125.117 81.4621 121.31 82.6131C123.654 83.7537 124.826 84.7173 124.872 85.8319C124.997 88.4777 121.971 87.6183 122.544 91.3267C124.149 101.65 125.966 105.712 111.789 106.999C100.82 109.493 93.9037 119.165 91.0392 135.999C234.294 30.7225 124.18 -35.0171 76.6069 19.8631C89.4871 22.1287 99.3673 30.8319 106.242 45.9673C111.805 58.2017 111.477 59.3423 122.534 65.4829C127.638 68.3215 124.935 70.3787 120.69 74.4933Z" fill="#176554"/>
<path fill-rule="evenodd" clip-rule="evenodd" d="M70.8621 19.6756C73.185 17.0975 75.6329 14.6287 78.1954 12.2798C15.5913 -27.9494 -44.0181 36.7537 45.6017 118.071C53.2371 106.061 39.1017 95.8579 32.8256 86.1079C12.0131 53.7693 33.7736 21.2381 70.8621 19.6756Z" fill="#5D806D"/>
</svg>
